<mxfile host="app.diagrams.net" modified="2023-11-30T15:31:41.871Z" agent="Mozilla/5.0 (Windows NT 10.0; Win64; x64) AppleWebKit/537.36 (KHTML, like Gecko) Chrome/119.0.0.0 Safari/537.36" etag="sB1O5GMVwvjEuXOmcHGi" version="22.1.5" type="device">
  <diagram name="Page-1" id="zD5WJPUnHl2Ot8-gsOWg">
    <mxGraphModel dx="1434" dy="782" grid="1" gridSize="10" guides="1" tooltips="1" connect="1" arrows="1" fold="1" page="1" pageScale="1" pageWidth="850" pageHeight="1100" math="0" shadow="0">
      <root>
        <mxCell id="0" />
        <mxCell id="1" parent="0" />
        <mxCell id="worhstT-bZPil8YB4B3q-15" style="edgeStyle=orthogonalEdgeStyle;rounded=0;orthogonalLoop=1;jettySize=auto;html=1;exitX=1;exitY=0.7;exitDx=0;exitDy=0;exitPerimeter=0;" parent="1" source="worhstT-bZPil8YB4B3q-8" target="worhstT-bZPil8YB4B3q-1" edge="1">
          <mxGeometry relative="1" as="geometry">
            <Array as="points">
              <mxPoint x="240" y="79" />
              <mxPoint x="240" y="150" />
            </Array>
          </mxGeometry>
        </mxCell>
        <mxCell id="worhstT-bZPil8YB4B3q-8" value="" style="outlineConnect=0;dashed=0;verticalLabelPosition=bottom;verticalAlign=top;align=center;html=1;shape=mxgraph.aws3.internet_3;fillColor=#D2D3D3;gradientColor=none;" parent="1" vertex="1">
          <mxGeometry x="40" y="20" width="127" height="84" as="geometry" />
        </mxCell>
        <mxCell id="worhstT-bZPil8YB4B3q-9" value="" style="dashed=0;outlineConnect=0;html=1;align=center;labelPosition=center;verticalLabelPosition=bottom;verticalAlign=top;shape=mxgraph.weblogos.sms;fillColor=#48B921;strokeColor=none" parent="1" vertex="1">
          <mxGeometry x="40" y="150" width="117.55" height="100" as="geometry" />
        </mxCell>
        <mxCell id="worhstT-bZPil8YB4B3q-19" style="edgeStyle=orthogonalEdgeStyle;rounded=0;orthogonalLoop=1;jettySize=auto;html=1;" parent="1" source="worhstT-bZPil8YB4B3q-10" target="worhstT-bZPil8YB4B3q-1" edge="1">
          <mxGeometry relative="1" as="geometry">
            <Array as="points">
              <mxPoint x="240" y="339" />
              <mxPoint x="240" y="250" />
            </Array>
          </mxGeometry>
        </mxCell>
        <mxCell id="worhstT-bZPil8YB4B3q-10" value="" style="shape=image;html=1;verticalAlign=top;verticalLabelPosition=bottom;labelBackgroundColor=#ffffff;imageAspect=0;aspect=fixed;image=https://cdn0.iconfinder.com/data/icons/apple-apps/100/Apple_Phone-128.png;" parent="1" vertex="1">
          <mxGeometry x="40.05000000000001" y="280" width="118" height="118" as="geometry" />
        </mxCell>
        <mxCell id="worhstT-bZPil8YB4B3q-18" style="edgeStyle=orthogonalEdgeStyle;rounded=0;orthogonalLoop=1;jettySize=auto;html=1;entryX=-0.078;entryY=0.471;entryDx=0;entryDy=0;entryPerimeter=0;" parent="1" source="worhstT-bZPil8YB4B3q-9" target="worhstT-bZPil8YB4B3q-1" edge="1">
          <mxGeometry relative="1" as="geometry" />
        </mxCell>
        <mxCell id="worhstT-bZPil8YB4B3q-35" value="" style="group" parent="1" vertex="1" connectable="0">
          <mxGeometry x="320" y="70" width="449.70000000000005" height="290" as="geometry" />
        </mxCell>
        <mxCell id="worhstT-bZPil8YB4B3q-1" value="" style="image;points=[];aspect=fixed;html=1;align=center;shadow=0;dashed=0;image=img/lib/allied_telesis/computer_and_terminals/Smartphone.svg;" parent="worhstT-bZPil8YB4B3q-35" vertex="1">
          <mxGeometry y="65" width="64.17" height="140" as="geometry" />
        </mxCell>
        <mxCell id="worhstT-bZPil8YB4B3q-2" value="" style="html=1;verticalLabelPosition=bottom;align=center;labelBackgroundColor=#ffffff;verticalAlign=top;strokeWidth=2;strokeColor=#0080F0;shadow=0;dashed=0;shape=mxgraph.ios7.icons.volume_2;pointerEvents=1" parent="worhstT-bZPil8YB4B3q-35" vertex="1">
          <mxGeometry x="200" y="220" width="89.7" height="70" as="geometry" />
        </mxCell>
        <mxCell id="worhstT-bZPil8YB4B3q-7" value="" style="html=1;verticalLabelPosition=bottom;align=center;labelBackgroundColor=#ffffff;verticalAlign=top;strokeWidth=2;strokeColor=#b85450;shadow=0;dashed=0;shape=mxgraph.ios7.icons.silent;fillColor=#f8cecc;" parent="worhstT-bZPil8YB4B3q-35" vertex="1">
          <mxGeometry x="200" width="89.7" height="90" as="geometry" />
        </mxCell>
        <mxCell id="worhstT-bZPil8YB4B3q-11" value="" style="html=1;verticalLabelPosition=bottom;align=center;labelBackgroundColor=#ffffff;verticalAlign=top;strokeWidth=2;strokeColor=#0080F0;shadow=0;dashed=0;shape=mxgraph.ios7.icons.volume_2;pointerEvents=1" parent="worhstT-bZPil8YB4B3q-35" vertex="1">
          <mxGeometry x="360" y="100" width="89.7" height="70" as="geometry" />
        </mxCell>
        <mxCell id="worhstT-bZPil8YB4B3q-20" style="edgeStyle=orthogonalEdgeStyle;rounded=0;orthogonalLoop=1;jettySize=auto;html=1;entryX=-0.022;entryY=0.489;entryDx=0;entryDy=0;entryPerimeter=0;" parent="worhstT-bZPil8YB4B3q-35" source="worhstT-bZPil8YB4B3q-1" target="worhstT-bZPil8YB4B3q-7" edge="1">
          <mxGeometry relative="1" as="geometry" />
        </mxCell>
        <mxCell id="worhstT-bZPil8YB4B3q-21" style="edgeStyle=orthogonalEdgeStyle;rounded=0;orthogonalLoop=1;jettySize=auto;html=1;entryX=-0.011;entryY=0.543;entryDx=0;entryDy=0;entryPerimeter=0;" parent="worhstT-bZPil8YB4B3q-35" source="worhstT-bZPil8YB4B3q-1" target="worhstT-bZPil8YB4B3q-2" edge="1">
          <mxGeometry relative="1" as="geometry" />
        </mxCell>
        <mxCell id="worhstT-bZPil8YB4B3q-22" style="edgeStyle=orthogonalEdgeStyle;rounded=0;orthogonalLoop=1;jettySize=auto;html=1;entryX=0.446;entryY=0.143;entryDx=0;entryDy=0;entryPerimeter=0;" parent="worhstT-bZPil8YB4B3q-35" source="worhstT-bZPil8YB4B3q-7" target="worhstT-bZPil8YB4B3q-11" edge="1">
          <mxGeometry relative="1" as="geometry" />
        </mxCell>
        <mxCell id="worhstT-bZPil8YB4B3q-23" style="edgeStyle=orthogonalEdgeStyle;rounded=0;orthogonalLoop=1;jettySize=auto;html=1;entryX=0.435;entryY=0.943;entryDx=0;entryDy=0;entryPerimeter=0;" parent="worhstT-bZPil8YB4B3q-35" source="worhstT-bZPil8YB4B3q-2" target="worhstT-bZPil8YB4B3q-11" edge="1">
          <mxGeometry relative="1" as="geometry" />
        </mxCell>
        <mxCell id="worhstT-bZPil8YB4B3q-36" value="" style="group" parent="1" vertex="1" connectable="0">
          <mxGeometry x="320" y="470" width="449.70000000000005" height="290" as="geometry" />
        </mxCell>
        <mxCell id="worhstT-bZPil8YB4B3q-37" value="" style="image;points=[];aspect=fixed;html=1;align=center;shadow=0;dashed=0;image=img/lib/allied_telesis/computer_and_terminals/Smartphone.svg;" parent="worhstT-bZPil8YB4B3q-36" vertex="1">
          <mxGeometry y="65" width="64.17" height="140" as="geometry" />
        </mxCell>
        <mxCell id="worhstT-bZPil8YB4B3q-38" value="" style="html=1;verticalLabelPosition=bottom;align=center;labelBackgroundColor=#ffffff;verticalAlign=top;strokeWidth=2;strokeColor=#0080F0;shadow=0;dashed=0;shape=mxgraph.ios7.icons.volume_2;pointerEvents=1" parent="worhstT-bZPil8YB4B3q-36" vertex="1">
          <mxGeometry x="200" y="220" width="89.7" height="70" as="geometry" />
        </mxCell>
        <mxCell id="worhstT-bZPil8YB4B3q-39" value="" style="html=1;verticalLabelPosition=bottom;align=center;labelBackgroundColor=#ffffff;verticalAlign=top;strokeWidth=2;strokeColor=#b85450;shadow=0;dashed=0;shape=mxgraph.ios7.icons.silent;fillColor=#f8cecc;" parent="worhstT-bZPil8YB4B3q-36" vertex="1">
          <mxGeometry x="200" width="89.7" height="90" as="geometry" />
        </mxCell>
        <mxCell id="worhstT-bZPil8YB4B3q-40" value="" style="html=1;verticalLabelPosition=bottom;align=center;labelBackgroundColor=#ffffff;verticalAlign=top;strokeWidth=2;strokeColor=#0080F0;shadow=0;dashed=0;shape=mxgraph.ios7.icons.volume_2;pointerEvents=1" parent="worhstT-bZPil8YB4B3q-36" vertex="1">
          <mxGeometry x="360" y="100" width="89.7" height="70" as="geometry" />
        </mxCell>
        <mxCell id="worhstT-bZPil8YB4B3q-41" style="edgeStyle=orthogonalEdgeStyle;rounded=0;orthogonalLoop=1;jettySize=auto;html=1;entryX=-0.022;entryY=0.489;entryDx=0;entryDy=0;entryPerimeter=0;" parent="worhstT-bZPil8YB4B3q-36" source="worhstT-bZPil8YB4B3q-37" target="worhstT-bZPil8YB4B3q-39" edge="1">
          <mxGeometry relative="1" as="geometry" />
        </mxCell>
        <mxCell id="worhstT-bZPil8YB4B3q-42" style="edgeStyle=orthogonalEdgeStyle;rounded=0;orthogonalLoop=1;jettySize=auto;html=1;entryX=-0.011;entryY=0.543;entryDx=0;entryDy=0;entryPerimeter=0;" parent="worhstT-bZPil8YB4B3q-36" source="worhstT-bZPil8YB4B3q-37" target="worhstT-bZPil8YB4B3q-38" edge="1">
          <mxGeometry relative="1" as="geometry" />
        </mxCell>
        <mxCell id="worhstT-bZPil8YB4B3q-43" style="edgeStyle=orthogonalEdgeStyle;rounded=0;orthogonalLoop=1;jettySize=auto;html=1;entryX=0.446;entryY=0.143;entryDx=0;entryDy=0;entryPerimeter=0;" parent="worhstT-bZPil8YB4B3q-36" source="worhstT-bZPil8YB4B3q-39" target="worhstT-bZPil8YB4B3q-40" edge="1">
          <mxGeometry relative="1" as="geometry" />
        </mxCell>
        <mxCell id="worhstT-bZPil8YB4B3q-44" style="edgeStyle=orthogonalEdgeStyle;rounded=0;orthogonalLoop=1;jettySize=auto;html=1;entryX=0.435;entryY=0.943;entryDx=0;entryDy=0;entryPerimeter=0;" parent="worhstT-bZPil8YB4B3q-36" source="worhstT-bZPil8YB4B3q-38" target="worhstT-bZPil8YB4B3q-40" edge="1">
          <mxGeometry relative="1" as="geometry" />
        </mxCell>
        <mxCell id="worhstT-bZPil8YB4B3q-53" style="edgeStyle=orthogonalEdgeStyle;rounded=0;orthogonalLoop=1;jettySize=auto;html=1;" parent="1" source="worhstT-bZPil8YB4B3q-51" target="worhstT-bZPil8YB4B3q-37" edge="1">
          <mxGeometry relative="1" as="geometry" />
        </mxCell>
        <mxCell id="worhstT-bZPil8YB4B3q-51" value="" style="sketch=0;pointerEvents=1;shadow=0;dashed=0;html=1;strokeColor=none;labelPosition=center;verticalLabelPosition=bottom;verticalAlign=top;align=center;fillColor=#505050;shape=mxgraph.mscae.intune.intune_wifi_profiles" parent="1" vertex="1">
          <mxGeometry x="310" y="370" width="84" height="88" as="geometry" />
        </mxCell>
        <mxCell id="worhstT-bZPil8YB4B3q-52" style="edgeStyle=orthogonalEdgeStyle;rounded=0;orthogonalLoop=1;jettySize=auto;html=1;entryX=0.5;entryY=0;entryDx=0;entryDy=0;entryPerimeter=0;" parent="1" source="worhstT-bZPil8YB4B3q-1" target="worhstT-bZPil8YB4B3q-51" edge="1">
          <mxGeometry relative="1" as="geometry" />
        </mxCell>
      </root>
    </mxGraphModel>
  </diagram>
</mxfile>
